# xmcd
# Track frame offsets:
# 150
# 4425
# 26020
# 47207
# 67275
# 94215
# 118990
# 140500
# 166532
# 184635
# 205717
# 228512
#
# Disc length: 3222 seconds
# Revision: 0
# Processed by: cddbd v1.4PL0 Copyright (c) Steve Scherf et al.
# Submitted via: VisiTrax 2.9.5.181 - For more info visit www.synapsa.com
#
DISCID=aa0c940c
DTITLE=Patti LaBelle - When a Woman Loves
DYEAR=2000
DGENRE=R&B
TTITLE0=The Kitchen
TTITLE1=When a Woman Loves
TTITLE2=Make Tonight Beautiful
TTITLE3=If I Was a River
TTITLE4=Why Do We Hurt Each Other
TTITLE5=Too Many Tears, Too Many Times
TTITLE6=Call Me Gone
TTITLE7=Time Will
TTITLE8=Tell Where It Hurts
TTITLE9=I'll Still Love You More
TTITLE10=Love Will Lead You Back
TTITLE11=When a Woman Loves (Reprise)
EXTD=MCA 088 112 267-2 c.2000
EXTT0=
EXTT1=
EXTT2=
EXTT3=
EXTT4=
EXTT5=
EXTT6=
EXTT7=
EXTT8=
EXTT9=
EXTT10=
EXTT11=
PLAYORDER=
